<svg xmlns="http://www.w3.org/2000/svg" viewBox="0 0 100 100">
  <g stroke-linecap="round" stroke-linejoin="round">
    <path d="M42 38 28 37 18 47M58 38 72 37 82 47M41 47 28 54 20 68M59 47 72 54 80 68M43 57 32 70 29 83M57 57 68 70 71 83M44 18 37 8 31 9M56 18 63 8 69 9" fill="none" stroke="#000" stroke-width="3"/>
    <path d="M43 46C29 34 13 42 19 54C23 63 34 60 44 52ZM57 46C71 34 87 42 81 54C77 63 66 60 56 52Z" fill="white" stroke="#000" stroke-width="3"/>
    <path d="M43 39C33 18 9 15 9 30C9 44 28 49 43 46ZM57 39C67 18 91 15 91 30C91 44 72 49 57 46Z" fill="white" stroke="#000" stroke-width="3"/>
    <path d="M40 42 21 29M60 42 79 29" fill="none" stroke="#000" stroke-width="1.5" opacity="0.35"/>
    <path d="M41 50C33 61 35 79 50 93C65 79 67 61 59 50Z" fill="#00FF00" stroke="#000" stroke-width="3"/>
    <path d="M38 59Q50 62 62 59M38 70Q50 74 62 70M42 81Q50 84 58 81" fill="none" stroke="#000" stroke-width="5"/>
    <ellipse cx="50" cy="43" rx="11" ry="13" fill="#00FF00" stroke="#000" stroke-width="3"/>
    <path d="M39 24Q39 15 50 15Q61 15 61 24L58 31Q50 36 42 31Z" fill="#00FF00" stroke="#000" stroke-width="3"/>
    <path d="M40 23 42 27M60 23 58 27" stroke="#000" stroke-width="4"/>
  </g>
</svg>
